<svg width="214" height="204" viewBox="0 0 214 204" fill="none" xmlns="http://www.w3.org/2000/svg">
<rect width="214" height="204" rx="102" fill="#003A7B"/>
<path d="M27.312 148L44.72 65.568H93.616C100.187 65.568 105.52 67.2747 109.616 70.688C113.797 74.1013 115.888 78.5813 115.888 84.128C115.888 85.8347 115.717 87.4133 115.376 88.864C114.523 92.96 113.072 96.4587 111.024 99.36C109.061 102.261 106.715 104.565 103.984 106.272C106.288 107.467 108.123 108.96 109.488 110.752C110.853 112.459 111.536 114.805 111.536 117.792C111.536 118.56 111.451 119.413 111.28 120.352C111.195 121.205 111.067 122.101 110.896 123.04C109.275 130.805 105.691 136.907 100.144 141.344C94.6827 145.781 86.8747 148 76.72 148H27.312ZM67.12 97.184H78.64C82.736 97.184 85.168 95.3493 85.936 91.68C86.0213 91.3387 86.064 90.912 86.064 90.4C86.064 87.84 84.3573 86.56 80.944 86.56H69.424L67.12 97.184ZM60.72 127.008H72.24C76.336 127.008 78.768 125.173 79.536 121.504C79.6213 121.248 79.664 120.992 79.664 120.736C79.664 120.48 79.664 120.267 79.664 120.096C79.664 117.621 77.9573 116.384 74.544 116.384H63.024L60.72 127.008ZM125.449 148L138.121 87.84H117.129L121.865 65.568H194.825L190.089 87.84H169.097L156.425 148H125.449Z" fill="white"/>
</svg>
